<svg xmlns="http://www.w3.org/2000/svg" width="24" height="24" fill="none" viewBox="0 0 24 24"><path fill="#2E3439" d="M20 0H4C1.79086 0 0 1.79086 0 4V20C0 22.2091 1.79086 24 4 24H20C22.2091 24 24 22.2091 24 20V4C24 1.79086 22.2091 0 20 0Z"/><path fill="#FFCA20" d="M19.0318 10.7755L13.0318 4.77625H19.0318V10.7755Z" opacity=".7"/><path fill="#FFCA20" d="M8.82953 3H12.2308L14.8302 5.59874H8.82953V3Z" opacity=".7"/><path fill="#FFCF39" d="M9.02417 9.00071L3.02417 3H10.2383V9L9.02417 9.00071ZM14.2951 15L20.2951 21H14.2951V15Z" opacity=".9"/><path fill="#FFE490" d="M10.2384 15.0007L4.23907 9H10.2391V15L10.2384 15.0007ZM16.6999 11.964L11.9169 7.1781H16.702L16.6999 11.964ZM17.2592 20.4414L11.8177 15.0007H17.2592V20.4414Z" opacity=".7"/><path fill="#FCBC7C" d="M10.2384 7.77946L5.45892 3H10.2384V7.77946Z" opacity=".9"/><path fill="#F9A040" d="M11.842 15L17.842 21H11.842V15Z" opacity=".8"/><path fill="#F9A040" d="M17.9147 17.3954L11.9225 11.4033H17.9147V17.3954Z" opacity=".7"/><path fill="#FFCF39" d="M11.9169 7.1781L17.8441 13.1053H11.9169V7.1781Z" opacity=".9"/><path fill="#FFC737" d="M10.2384 20.9765L3 13.7366H10.2384V20.9765Z" opacity=".7"/></svg>